<?xml version="1.0" encoding="UTF-8"?>
<svg version="1.1" xmlns="http://www.w3.org/2000/svg" width="32" height="32">
<path d="M0 0 C10.56 0 21.12 0 32 0 C32 10.56 32 21.12 32 32 C21.44 32 10.88 32 0 32 C0 21.44 0 10.88 0 0 Z " fill="#241F1F" transform="translate(0,0)"/>
<path d="M0 0 C3.30328914 5.54480677 4.82282315 9.52026769 4 16 C2.96941055 18.85478788 1.88180431 20.50788077 0 23 C-2.75 23.9375 -2.75 23.9375 -5 24 C-8.89201484 18.35030103 -10.98771118 13.97982565 -10 7 C-7.15183291 1.77836033 -6.03634808 0 0 0 Z " fill="#B87E1F" transform="translate(19,4)"/>
<path d="M0 0 C3.63128044 3.89065762 3.25922921 7.97276146 3.10546875 12.98828125 C3.07066406 13.65214844 3.03585938 14.31601562 3 15 C0 13 0 13 -0.9375 10.5 C-1.77763578 7.85479785 -1.77763578 7.85479785 -4.125 6.6875 C-4.74375 6.460625 -5.3625 6.23375 -6 6 C-6 4.35 -6 2.7 -6 1 C-4 0 -4 0 0 0 Z " fill="#C7992C" transform="translate(19,4)"/>
<path d="M0 0 C1.32 0.66 2.64 1.32 4 2 C4 4.31 4 6.62 4 9 C3.34 9 2.68 9 2 9 C2 9.66 2 10.32 2 11 C0.68 10.34 -0.64 9.68 -2 9 C-2.125 5.625 -2.125 5.625 -2 2 C-1.34 1.34 -0.68 0.68 0 0 Z " fill="#805109" transform="translate(15,11)"/>
<path d="M0 0 C0.33 0 0.66 0 1 0 C1 1.98 1 3.96 1 6 C0.34 6 -0.32 6 -1 6 C-0.814375 6.598125 -0.62875 7.19625 -0.4375 7.8125 C0 10 0 10 -1 13 C-1.66 13 -2.32 13 -3 13 C-3.27131956 7.66404866 -3.4266889 4.38616179 0 0 Z " fill="#9F7227" transform="translate(12,6)"/>
<path d="M0 0 C0.598125 0.804375 1.19625 1.60875 1.8125 2.4375 C3.80947276 5.22327984 3.80947276 5.22327984 7 6 C7.33 5.34 7.66 4.68 8 4 C8.33 5.32 8.66 6.64 9 8 C7.35 8.33 5.7 8.66 4 9 C0 3.375 0 3.375 0 0 Z " fill="#CB9832" transform="translate(10,19)"/>
<path d="M0 0 C0.33 0 0.66 0 1 0 C1.36923077 7.38461538 1.36923077 7.38461538 -0.5 10.5 C-0.995 10.995 -1.49 11.49 -2 12 C-2 11.34 -2 10.68 -2 10 C-2.99 9.67 -3.98 9.34 -5 9 C-4.34 8.67 -3.68 8.34 -3 8 C-2.67 7.01 -2.34 6.02 -2 5 C-1.67 5.33 -1.34 5.66 -1 6 C-0.67 4.02 -0.34 2.04 0 0 Z " fill="#986D23" transform="translate(22,12)"/>
<path d="M0 0 C1.32 0 2.64 0 4 0 C5.875 2.25 5.875 2.25 7 5 C6.1875 7.3125 6.1875 7.3125 5 9 C3.23537317 5.91190305 3 4.76687864 3 1 C2.01 0.67 1.02 0.34 0 0 Z " fill="#A4792D" transform="translate(15,4)"/>
<path d="M0 0 C0 2.64 0 5.28 0 8 C-0.99 7.34 -1.98 6.68 -3 6 C-3.1875 3.375 -3.1875 3.375 -3 1 C-1 0 -1 0 0 0 Z " fill="#CFA434" transform="translate(22,11)"/>
<path d="M0 0 C1.5625 1.8125 1.5625 1.8125 3 4 C2.67 4.99 2.34 5.98 2 7 C1.01 6.67 0.02 6.34 -1 6 C-0.67 4.02 -0.34 2.04 0 0 Z " fill="#A26815" transform="translate(15,13)"/>
</svg>
